<?xml version="1.0" encoding="UTF-8"?><svg xmlns="http://www.w3.org/2000/svg" xmlns:xlink="http://www.w3.org/1999/xlink" fill-opacity="1" color-rendering="auto" color-interpolation="auto" text-rendering="auto" stroke="black" stroke-linecap="square" width="443" stroke-miterlimit="10" shape-rendering="auto" stroke-opacity="1" fill="black" stroke-dasharray="none" font-weight="normal" stroke-width="1" height="752" font-family="'Dialog'" font-style="normal" stroke-linejoin="miter" font-size="12" stroke-dashoffset="0" image-rendering="auto">
  <!--Generated by ySVG-->
  <defs id="genericDefs"/>
  <g>
    <defs id="defs1">
      <clipPath clipPathUnits="userSpaceOnUse" id="clipPath1">
        <path d="M0 0 L443 0 L443 752 L0 752 L0 0 Z"/>
      </clipPath>
      <clipPath clipPathUnits="userSpaceOnUse" id="clipPath2">
        <path d="M-10 -16 L453 -16 L453 769.9503 L-10 769.9503 L-10 -16 Z"/>
      </clipPath>
    </defs>
    <g fill="white" transform="scale(0.9568,0.9568) translate(10,16)" stroke="white">
      <rect x="-10" y="-16" clip-path="url(#clipPath2)" width="463" height="786" stroke="none"/>
    </g>
    <g id="y.node.0">
      <g fill="rgb(204,204,204)" transform="matrix(0.9568,0,0,0.9568,9.568,15.3089)" stroke="rgb(204,204,204)">
        <rect width="442.75" x="0" height="752" y="0" stroke="none"/>
      </g>
      <g id="bla">
        <g fill="rgb(64,64,64)" transform="matrix(0.9568,0,0,0.9568,9.568,15.3089)" stroke="rgb(64,64,64)">
          <rect width="442.75" x="0" height="23.6016" y="0" stroke="none"/>
        </g>
        <g fill="white" font-size="16" font-family="sans-serif" transform="matrix(0.9568,0,0,0.9568,9.568,15.3089)" stroke="white">
          <text xml:space="preserve" x="406.75" y="18.0859" stroke="none">main</text>
        </g>
      </g>
      <g fill="white" transform="matrix(0.9568,0,0,0.9568,9.568,15.3089)" stroke="white">
        <rect width="1" x="0" height="752" y="0" stroke="none"/>
        <rect width="440.75" x="1" height="1" y="0" stroke="none"/>
        <rect x="1" y="751" fill="rgb(142,142,142)" width="441.75" height="1" stroke="none"/>
        <rect x="441.75" y="0" fill="rgb(142,142,142)" width="1" height="751" stroke="none"/>
      </g>
    </g>
    <g id="y.node.2">
      <g fill="rgb(222,239,234)" transform="matrix(0.9568,0,0,0.9568,9.568,15.3089)" stroke="rgb(222,239,234)">
        <rect width="86" x="156.5" height="84" y="653" stroke="none"/>
      </g>
      <g id="bla">
        <g fill="rgb(64,64,64)" transform="matrix(0.9568,0,0,0.9568,9.568,15.3089)" stroke="rgb(64,64,64)">
          <rect width="101" x="149" height="23.6016" y="653" stroke="none"/>
        </g>
        <g fill="white" font-size="16" font-family="sans-serif" transform="matrix(0.9568,0,0,0.9568,9.568,15.3089)" stroke="white">
          <text xml:space="preserve" x="151" y="671.0859" stroke="none">End Block  54</text>
        </g>
      </g>
      <g fill="white" transform="matrix(0.9568,0,0,0.9568,9.568,15.3089)" stroke="white">
        <rect width="1" x="156.5" height="84" y="653" stroke="none"/>
        <rect width="84" x="157.5" height="1" y="653" stroke="none"/>
        <rect x="157.5" y="736" fill="rgb(155,167,163)" width="85" height="1" stroke="none"/>
        <rect x="241.5" y="653" fill="rgb(155,167,163)" width="1" height="83" stroke="none"/>
      </g>
    </g>
    <g id="y.node.15">
      <g fill="rgb(255,153,255)" transform="matrix(0.9568,0,0,0.9568,9.568,15.3089)" stroke="rgb(255,153,255)">
        <rect width="56" x="171.5" height="30" y="692" stroke="none"/>
      </g>
      <g id="bla">
        <g font-family="sans-serif" transform="matrix(0.9568,0,0,0.9568,9.568,15.3089)">
          <text xml:space="preserve" x="178.5" y="711.7139" stroke="none">End  55</text>
        </g>
      </g>
      <g stroke-miterlimit="1.45" transform="matrix(0.9568,0,0,0.9568,9.568,15.3089)" stroke-linecap="butt">
        <rect fill="none" width="56" x="171.5" height="30" y="692"/>
      </g>
    </g>
    <g id="y.node.1">
      <g fill="rgb(222,239,234)" transform="matrix(0.9568,0,0,0.9568,9.568,15.3089)" stroke="rgb(222,239,234)">
        <rect width="412.75" x="15" height="574" y="39" stroke="none"/>
      </g>
      <g id="bla">
        <g fill="rgb(64,64,64)" transform="matrix(0.9568,0,0,0.9568,9.568,15.3089)" stroke="rgb(64,64,64)">
          <rect width="412.75" x="15" height="23.6016" y="39" stroke="none"/>
        </g>
        <g fill="white" font-size="16" font-family="sans-serif" transform="matrix(0.9568,0,0,0.9568,9.568,15.3089)" stroke="white">
          <text xml:space="preserve" x="323.75" y="57.0859" stroke="none">Start Block  56</text>
        </g>
      </g>
      <g fill="white" transform="matrix(0.9568,0,0,0.9568,9.568,15.3089)" stroke="white">
        <rect width="1" x="15" height="574" y="39" stroke="none"/>
        <rect width="410.75" x="16" height="1" y="39" stroke="none"/>
        <rect x="16" y="612" fill="rgb(155,167,163)" width="411.75" height="1" stroke="none"/>
        <rect x="426.75" y="39" fill="rgb(155,167,163)" width="1" height="573" stroke="none"/>
      </g>
    </g>
    <g id="y.node.3">
      <g fill="rgb(255,153,153)" transform="matrix(0.9568,0,0,0.9568,9.568,15.3089)" stroke="rgb(255,153,153)">
        <rect width="71" x="164" height="30" y="568" stroke="none"/>
      </g>
      <g id="bla">
        <g font-family="sans-serif" transform="matrix(0.9568,0,0,0.9568,9.568,15.3089)">
          <text xml:space="preserve" x="171" y="587.7139" stroke="none">Return  78</text>
        </g>
      </g>
      <g stroke-miterlimit="1.45" transform="matrix(0.9568,0,0,0.9568,9.568,15.3089)" stroke-linecap="butt">
        <rect fill="none" width="71" x="164" height="30" y="568"/>
      </g>
    </g>
    <g id="y.node.4">
      <g fill="rgb(255,255,153)" transform="matrix(0.9568,0,0,0.9568,9.568,15.3089)" stroke="rgb(255,255,153)">
        <rect width="106" x="202.25" height="30" y="498" stroke="none"/>
      </g>
      <g id="bla">
        <g font-family="sans-serif" transform="matrix(0.9568,0,0,0.9568,9.568,15.3089)">
          <text xml:space="preserve" x="209.25" y="517.7139" stroke="none">Const 0x14 Is 70</text>
        </g>
      </g>
      <g stroke-miterlimit="1.45" transform="matrix(0.9568,0,0,0.9568,9.568,15.3089)" stroke-linecap="butt">
        <rect fill="none" width="106" x="202.25" height="30" y="498"/>
      </g>
    </g>
    <g id="y.node.5">
      <g fill="rgb(153,153,255)" transform="matrix(0.9568,0,0,0.9568,9.568,15.3089)" stroke="rgb(153,153,255)">
        <rect width="77" x="105.25" height="30" y="498" stroke="none"/>
      </g>
      <g id="bla">
        <g font-family="sans-serif" transform="matrix(0.9568,0,0,0.9568,9.568,15.3089)">
          <text xml:space="preserve" x="112.25" y="517.7139" stroke="none">Proj M M 72</text>
        </g>
      </g>
      <g stroke-miterlimit="1.45" transform="matrix(0.9568,0,0,0.9568,9.568,15.3089)" stroke-linecap="butt">
        <rect fill="none" width="77" x="105.25" height="30" y="498"/>
      </g>
    </g>
    <g id="y.node.6">
      <g fill="rgb(153,153,255)" transform="matrix(0.9568,0,0,0.9568,9.568,15.3089)" stroke="rgb(153,153,255)">
        <rect width="63" x="112.25" height="30" y="428" stroke="none"/>
      </g>
      <g id="bla">
        <g font-family="sans-serif" transform="matrix(0.9568,0,0,0.9568,9.568,15.3089)">
          <text xml:space="preserve" x="119.25" y="447.7139" stroke="none">Store  71</text>
        </g>
      </g>
      <g stroke-miterlimit="1.45" transform="matrix(0.9568,0,0,0.9568,9.568,15.3089)" stroke-linecap="butt">
        <rect fill="none" width="63" x="112.25" height="30" y="428"/>
      </g>
    </g>
    <g id="y.node.7">
      <g fill="rgb(255,255,153)" transform="matrix(0.9568,0,0,0.9568,9.568,15.3089)" stroke="rgb(255,255,153)">
        <rect width="106" x="92.8906" height="30" y="358" stroke="none"/>
      </g>
      <g id="bla">
        <g font-family="sans-serif" transform="matrix(0.9568,0,0,0.9568,9.568,15.3089)">
          <text xml:space="preserve" x="99.8906" y="377.7139" stroke="none">Const 0x14 Is 70</text>
        </g>
      </g>
      <g stroke-miterlimit="1.45" transform="matrix(0.9568,0,0,0.9568,9.568,15.3089)" stroke-linecap="butt">
        <rect fill="none" width="106" x="92.8906" height="30" y="358"/>
      </g>
    </g>
    <g id="y.node.8">
      <g fill="rgb(153,153,255)" transform="matrix(0.9568,0,0,0.9568,9.568,15.3089)" stroke="rgb(153,153,255)">
        <rect width="77" x="218.8906" height="30" y="358" stroke="none"/>
      </g>
      <g id="bla">
        <g font-family="sans-serif" transform="matrix(0.9568,0,0,0.9568,9.568,15.3089)">
          <text xml:space="preserve" x="225.8906" y="377.7139" stroke="none">Proj M M 68</text>
        </g>
      </g>
      <g stroke-miterlimit="1.45" transform="matrix(0.9568,0,0,0.9568,9.568,15.3089)" stroke-linecap="butt">
        <rect fill="none" width="77" x="218.8906" height="30" y="358"/>
      </g>
    </g>
    <g id="y.node.9">
      <g fill="rgb(153,153,255)" transform="matrix(0.9568,0,0,0.9568,9.568,15.3089)" stroke="rgb(153,153,255)">
        <rect width="63" x="225.8906" height="30" y="288" stroke="none"/>
      </g>
      <g id="bla">
        <g font-family="sans-serif" transform="matrix(0.9568,0,0,0.9568,9.568,15.3089)">
          <text xml:space="preserve" x="232.8906" y="307.7139" stroke="none">Store  67</text>
        </g>
      </g>
      <g stroke-miterlimit="1.45" transform="matrix(0.9568,0,0,0.9568,9.568,15.3089)" stroke-linecap="butt">
        <rect fill="none" width="63" x="225.8906" height="30" y="288"/>
      </g>
    </g>
    <g id="y.node.10">
      <g fill="rgb(255,255,153)" transform="matrix(0.9568,0,0,0.9568,9.568,15.3089)" stroke="rgb(255,255,153)">
        <rect width="99" x="313.75" height="30" y="218" stroke="none"/>
      </g>
      <g id="bla">
        <g font-family="sans-serif" transform="matrix(0.9568,0,0,0.9568,9.568,15.3089)">
          <text xml:space="preserve" x="320.75" y="237.7139" stroke="none">Const 0xA Is 66</text>
        </g>
      </g>
      <g stroke-miterlimit="1.45" transform="matrix(0.9568,0,0,0.9568,9.568,15.3089)" stroke-linecap="butt">
        <rect fill="none" width="99" x="313.75" height="30" y="218"/>
      </g>
    </g>
    <g id="y.node.11">
      <g fill="rgb(153,153,255)" transform="matrix(0.9568,0,0,0.9568,9.568,15.3089)" stroke="rgb(153,153,255)">
        <rect width="77" x="216.75" height="30" y="218" stroke="none"/>
      </g>
      <g id="bla">
        <g font-family="sans-serif" transform="matrix(0.9568,0,0,0.9568,9.568,15.3089)">
          <text xml:space="preserve" x="223.75" y="237.7139" stroke="none">Proj M M 62</text>
        </g>
      </g>
      <g stroke-miterlimit="1.45" transform="matrix(0.9568,0,0,0.9568,9.568,15.3089)" stroke-linecap="butt">
        <rect fill="none" width="77" x="216.75" height="30" y="218"/>
      </g>
    </g>
    <g id="y.node.12">
      <g fill="white" transform="matrix(0.9568,0,0,0.9568,9.568,15.3089)" stroke="white">
        <rect width="97" x="56" height="30" y="218" stroke="none"/>
      </g>
      <g id="bla">
        <g font-family="sans-serif" transform="matrix(0.9568,0,0,0.9568,9.568,15.3089)">
          <text xml:space="preserve" x="63" y="237.7139" stroke="none">Member P a 65</text>
        </g>
      </g>
      <g stroke-miterlimit="1.45" transform="matrix(0.9568,0,0,0.9568,9.568,15.3089)" stroke-linecap="butt">
        <rect fill="none" width="97" x="56" height="30" y="218"/>
      </g>
    </g>
    <g id="y.node.13">
      <g fill="white" transform="matrix(0.9568,0,0,0.9568,9.568,15.3089)" stroke="white">
        <rect width="149" x="30" height="30" y="148" stroke="none"/>
      </g>
      <g id="bla">
        <g font-family="sans-serif" transform="matrix(0.9568,0,0,0.9568,9.568,15.3089)">
          <text xml:space="preserve" x="37" y="167.7139" stroke="none">Proj P P_frame_base 60</text>
        </g>
      </g>
      <g stroke-miterlimit="1.45" transform="matrix(0.9568,0,0,0.9568,9.568,15.3089)" stroke-linecap="butt">
        <rect fill="none" width="149" x="30" height="30" y="148"/>
      </g>
    </g>
    <g id="y.node.14">
      <g fill="rgb(255,153,255)" transform="matrix(0.9568,0,0,0.9568,9.568,15.3089)" stroke="rgb(255,153,255)">
        <rect width="59" x="115.6562" height="30" y="78" stroke="none"/>
      </g>
      <g id="bla">
        <g font-family="sans-serif" transform="matrix(0.9568,0,0,0.9568,9.568,15.3089)">
          <text xml:space="preserve" x="122.6562" y="97.7139" stroke="none">Start  59</text>
        </g>
      </g>
      <g stroke-miterlimit="1.45" transform="matrix(0.9568,0,0,0.9568,9.568,15.3089)" stroke-linecap="butt">
        <rect fill="none" width="59" x="115.6562" height="30" y="78"/>
      </g>
    </g>
    <g id="y.edge.0">
      <g fill="red" stroke-miterlimit="1.45" transform="matrix(0.9568,0,0,0.9568,9.568,15.3089)" stroke-linecap="butt" stroke="red">
        <path fill="none" d="M199.5 652.9731 L199.5 606"/>
        <path d="M199.5 598 L194.5 610 L199.5 607 L204.5 610 Z" stroke="none"/>
      </g>
      <g>
        <g stroke-miterlimit="1.45" font-family="sans-serif" transform="matrix(0.9568,0,0,0.9568,9.568,15.3089)" stroke-linecap="butt">
          <text xml:space="preserve" x="203.5" y="638.2383" stroke="none">0</text>
        </g>
      </g>
    </g>
    <g id="y.edge.1">
      <g fill="rgb(100,100,255)" stroke-miterlimit="1.45" transform="matrix(0.9568,0,0,0.9568,9.568,15.3089)" stroke-linecap="butt" stroke="rgb(100,100,255)">
        <path fill="none" d="M181.75 567.9609 L181.75 548 L143.75 548 L143.75 536"/>
        <path d="M143.75 528 L138.75 540 L143.75 537 L148.75 540 Z" stroke="none"/>
      </g>
      <g>
        <g stroke-miterlimit="1.45" font-family="sans-serif" transform="matrix(0.9568,0,0,0.9568,9.568,15.3089)" stroke-linecap="butt">
          <text xml:space="preserve" x="185.75" y="558.1514" stroke="none">0</text>
        </g>
      </g>
    </g>
    <g id="y.edge.2">
      <g stroke-miterlimit="1.45" transform="matrix(0.9568,0,0,0.9568,9.568,15.3089)" stroke-linecap="butt">
        <path fill="none" d="M217.25 567.9609 L217.25 548 L255.25 548 L255.25 536"/>
        <path d="M255.25 528 L250.25 540 L255.25 537 L260.25 540 Z" stroke="none"/>
      </g>
      <g>
        <g stroke-miterlimit="1.45" font-family="sans-serif" transform="matrix(0.9568,0,0,0.9568,9.568,15.3089)" stroke-linecap="butt">
          <text xml:space="preserve" x="221.25" y="558.1514" stroke="none">1</text>
        </g>
      </g>
    </g>
    <g id="y.edge.3">
      <g fill="rgb(100,100,255)" stroke-miterlimit="1.45" transform="matrix(0.9568,0,0,0.9568,9.568,15.3089)" stroke-linecap="butt" stroke="rgb(100,100,255)">
        <path fill="none" d="M143.75 497.9609 L143.75 466"/>
        <path d="M143.75 458 L138.75 470 L143.75 467 L148.75 470 Z" stroke="none"/>
      </g>
      <g>
        <g stroke-miterlimit="1.45" font-family="sans-serif" transform="matrix(0.9568,0,0,0.9568,9.568,15.3089)" stroke-linecap="butt">
          <text xml:space="preserve" x="147.75" y="483.2383" stroke="none">0</text>
        </g>
      </g>
    </g>
    <g id="y.edge.4">
      <g fill="rgb(100,100,255)" stroke-miterlimit="1.45" transform="matrix(0.9568,0,0,0.9568,9.568,15.3089)" stroke-linecap="butt" stroke="rgb(100,100,255)">
        <path fill="none" d="M164.75 427.9609 L164.75 408 L257.3906 408 L257.3906 396"/>
        <path d="M257.3906 388 L252.3906 400 L257.3906 397 L262.3906 400 Z" stroke="none"/>
      </g>
      <g>
        <g stroke-miterlimit="1.45" font-family="sans-serif" transform="matrix(0.9568,0,0,0.9568,9.568,15.3089)" stroke-linecap="butt">
          <text xml:space="preserve" x="168.75" y="418.1514" stroke="none">0</text>
        </g>
      </g>
    </g>
    <g id="y.edge.5">
      <g stroke-miterlimit="1.45" transform="matrix(0.9568,0,0,0.9568,9.568,15.3089)" stroke-linecap="butt">
        <path fill="none" d="M122.75 427.9609 L122.75 408 L80.25 408 L80.25 256"/>
        <path d="M80.25 248 L75.25 260 L80.25 257 L85.25 260 Z" stroke="none"/>
      </g>
      <g>
        <g stroke-miterlimit="1.45" font-family="sans-serif" transform="matrix(0.9568,0,0,0.9568,9.568,15.3089)" stroke-linecap="butt">
          <text xml:space="preserve" x="126.75" y="418.1514" stroke="none">1</text>
        </g>
      </g>
    </g>
    <g id="y.edge.6">
      <g stroke-miterlimit="1.45" transform="matrix(0.9568,0,0,0.9568,9.568,15.3089)" stroke-linecap="butt">
        <path fill="none" d="M143.75 427.9609 L143.75 408 L145.8906 408 L145.8906 396"/>
        <path d="M145.8906 388 L140.8906 400 L145.8906 397 L150.8906 400 Z" stroke="none"/>
      </g>
      <g>
        <g stroke-miterlimit="1.45" font-family="sans-serif" transform="matrix(0.9568,0,0,0.9568,9.568,15.3089)" stroke-linecap="butt">
          <text xml:space="preserve" x="147.75" y="418.1514" stroke="none">2</text>
        </g>
      </g>
    </g>
    <g id="y.edge.7">
      <g fill="rgb(100,100,255)" stroke-miterlimit="1.45" transform="matrix(0.9568,0,0,0.9568,9.568,15.3089)" stroke-linecap="butt" stroke="rgb(100,100,255)">
        <path fill="none" d="M257.3906 357.9609 L257.3906 326"/>
        <path d="M257.3906 318 L252.3906 330 L257.3906 327 L262.3906 330 Z" stroke="none"/>
      </g>
      <g>
        <g stroke-miterlimit="1.45" font-family="sans-serif" transform="matrix(0.9568,0,0,0.9568,9.568,15.3089)" stroke-linecap="butt">
          <text xml:space="preserve" x="261.3906" y="343.2383" stroke="none">0</text>
        </g>
      </g>
    </g>
    <g id="y.edge.8">
      <g fill="rgb(100,100,255)" stroke-miterlimit="1.45" transform="matrix(0.9568,0,0,0.9568,9.568,15.3089)" stroke-linecap="butt" stroke="rgb(100,100,255)">
        <path fill="none" d="M257.3906 287.9609 L257.3906 268 L255.25 268 L255.25 256"/>
        <path d="M255.25 248 L250.25 260 L255.25 257 L260.25 260 Z" stroke="none"/>
      </g>
      <g>
        <g stroke-miterlimit="1.45" font-family="sans-serif" transform="matrix(0.9568,0,0,0.9568,9.568,15.3089)" stroke-linecap="butt">
          <text xml:space="preserve" x="261.3906" y="278.1514" stroke="none">0</text>
        </g>
      </g>
    </g>
    <g id="y.edge.9">
      <g stroke-miterlimit="1.45" transform="matrix(0.9568,0,0,0.9568,9.568,15.3089)" stroke-linecap="butt">
        <path fill="none" d="M236.3906 287.9609 L236.3906 268 L128.75 268 L128.75 256"/>
        <path d="M128.75 248 L123.75 260 L128.75 257 L133.75 260 Z" stroke="none"/>
      </g>
      <g>
        <g stroke-miterlimit="1.45" font-family="sans-serif" transform="matrix(0.9568,0,0,0.9568,9.568,15.3089)" stroke-linecap="butt">
          <text xml:space="preserve" x="240.3906" y="278.1514" stroke="none">1</text>
        </g>
      </g>
    </g>
    <g id="y.edge.10">
      <g stroke-miterlimit="1.45" transform="matrix(0.9568,0,0,0.9568,9.568,15.3089)" stroke-linecap="butt">
        <path fill="none" d="M278.3906 287.9609 L278.3906 268 L363.25 268 L363.25 256"/>
        <path d="M363.25 248 L358.25 260 L363.25 257 L368.25 260 Z" stroke="none"/>
      </g>
      <g>
        <g stroke-miterlimit="1.45" font-family="sans-serif" transform="matrix(0.9568,0,0,0.9568,9.568,15.3089)" stroke-linecap="butt">
          <text xml:space="preserve" x="282.3906" y="278.1514" stroke="none">2</text>
        </g>
      </g>
    </g>
    <g id="y.edge.11">
      <g fill="rgb(100,100,255)" stroke-miterlimit="1.45" transform="matrix(0.9568,0,0,0.9568,9.568,15.3089)" stroke-linecap="butt" stroke="rgb(100,100,255)">
        <path fill="none" d="M255.25 217.9561 L255.25 128 L159.9062 128 L159.9062 116"/>
        <path d="M159.9062 108 L154.9062 120 L159.9062 117 L164.9062 120 Z" stroke="none"/>
      </g>
      <g>
        <g stroke-miterlimit="1.45" font-family="sans-serif" transform="matrix(0.9568,0,0,0.9568,9.568,15.3089)" stroke-linecap="butt">
          <text xml:space="preserve" x="259.25" y="203.2383" stroke="none">0</text>
        </g>
      </g>
    </g>
    <g id="y.edge.12">
      <g stroke-miterlimit="1.45" transform="matrix(0.9568,0,0,0.9568,9.568,15.3089)" stroke-linecap="butt">
        <path fill="none" d="M104.5 217.9609 L104.5 186"/>
        <path d="M104.5 178 L99.5 190 L104.5 187 L109.5 190 Z" stroke="none"/>
      </g>
      <g>
        <g stroke-miterlimit="1.45" font-family="sans-serif" transform="matrix(0.9568,0,0,0.9568,9.568,15.3089)" stroke-linecap="butt">
          <text xml:space="preserve" x="108.5" y="203.2383" stroke="none">0</text>
        </g>
      </g>
    </g>
    <g id="y.edge.13">
      <g stroke-miterlimit="1.45" transform="matrix(0.9568,0,0,0.9568,9.568,15.3089)" stroke-linecap="butt">
        <path fill="none" d="M104.5 147.9609 L104.5 128 L130.4062 128 L130.4062 116"/>
        <path d="M130.4062 108 L125.4062 120 L130.4062 117 L135.4062 120 Z" stroke="none"/>
      </g>
      <g>
        <g stroke-miterlimit="1.45" font-family="sans-serif" transform="matrix(0.9568,0,0,0.9568,9.568,15.3089)" stroke-linecap="butt">
          <text xml:space="preserve" x="108.5" y="138.1514" stroke="none">0</text>
        </g>
      </g>
    </g>
  </g>
</svg>
